<svg xmlns="http://www.w3.org/2000/svg" width="28" height="28" viewBox="0 0 28 28"><defs><style>.a{fill:#b9e632;}.b{fill:#0a2d32;}</style></defs><g transform="translate(-447 -4184)"><rect class="a" width="28" height="28" rx="6" transform="translate(447 4184)"/><g transform="translate(453 4190)"><path class="b" d="M-894.065,550h-6.892a4.559,4.559,0,0,1-4.554-4.554v-6.892A4.559,4.559,0,0,1-900.957,534h6.892a4.559,4.559,0,0,1,4.554,4.554v6.892A4.559,4.559,0,0,1-894.065,550Zm-6.892-14.628a3.186,3.186,0,0,0-3.182,3.182v6.892a3.186,3.186,0,0,0,3.182,3.183h6.892a3.186,3.186,0,0,0,3.182-3.183v-6.892a3.186,3.186,0,0,0-3.182-3.182Z" transform="translate(905.511 -533.999)"/><g transform="translate(3.566 3.565)"><path class="b" d="M-866.846,577.1a4.439,4.439,0,0,1-4.435-4.435,4.44,4.44,0,0,1,4.435-4.434,4.439,4.439,0,0,1,4.434,4.434A4.439,4.439,0,0,1-866.846,577.1Zm0-7.384a2.953,2.953,0,0,0-2.95,2.949,2.953,2.953,0,0,0,2.95,2.95,2.954,2.954,0,0,0,2.95-2.95A2.953,2.953,0,0,0-866.846,569.714Z" transform="translate(871.28 -568.229)"/></g><g transform="translate(11.157 2.653)"><path class="b" d="M-804.388,558.6a1.066,1.066,0,0,1-1.066,1.065,1.066,1.066,0,0,1-1.066-1.065,1.066,1.066,0,0,1,1.066-1.066A1.066,1.066,0,0,1-804.388,558.6Z" transform="translate(806.519 -557.538)"/></g></g></g></svg>