<svg xmlns="http://www.w3.org/2000/svg" width="28" height="28" viewBox="0 0 28 28"><defs><style>.a{fill:#b9e632;}.b{fill:#0a2d32;}</style></defs><g transform="translate(-375 -4184)"><rect class="a" width="28" height="28" rx="6" transform="translate(375 4184)"/><g transform="translate(382 4190)"><path class="b" d="M-1069.73,608.156h0l-.043-.023-1.427-.759h0l-.626-.333-1.9-1.012h0l-1.1-.586h0l-1.74-.926.479,1.719h0l.112.4.632,2.27h0l.258.928.83,2.98.85-1.243h0l.7-1.019,2.057,2.561,1.2-.966-1.7-2.12h0l-.355-.442,2.544-1.023Z" transform="translate(1083.756 -597.114)"/><path class="b" d="M-1133.091,554.18c-.285,0-.746-.523-1.131-1.691a12.008,12.008,0,0,1-.442-1.916h1.648l-.3-1.087h-1.479c-.052-.58-.079-1.185-.079-1.8s.027-1.223.079-1.8h3.408c.052.58.079,1.184.079,1.8,0,.063,0,.126,0,.189l1.063.572c.009-.253.014-.507.014-.76,0-.605-.025-1.212-.076-1.8h3.39a6.553,6.553,0,0,1,.252,1.8,6.556,6.556,0,0,1-.252,1.8h-1.39l2.126,1.143c.053-.126.1-.254.15-.383a.646.646,0,0,0,.024-.068,7.637,7.637,0,0,0,.417-2.5,7.636,7.636,0,0,0-.417-2.495.664.664,0,0,0-.024-.068,7.518,7.518,0,0,0-7.059-5.021,7.518,7.518,0,0,0-7.059,5.021.475.475,0,0,0-.024.068,7.617,7.617,0,0,0-.417,2.495,7.618,7.618,0,0,0,.417,2.5.571.571,0,0,0,.024.068,7.518,7.518,0,0,0,7.059,5.021,7.436,7.436,0,0,0,1.334-.121l-.516-1.872C-1132.573,553.894-1132.88,554.18-1133.091,554.18Zm5.753-9.387h-3.093a10.525,10.525,0,0,0-.979-3.381A6.47,6.47,0,0,1-1127.338,544.793Zm-6.884-1.916c.385-1.168.846-1.691,1.131-1.691s.746.523,1.131,1.691a12.013,12.013,0,0,1,.443,1.916h-3.147A12.008,12.008,0,0,1-1134.222,542.877Zm-.549-1.465a10.516,10.516,0,0,0-.979,3.381h-3.094A6.47,6.47,0,0,1-1134.771,541.412Zm-4.745,6.271a6.538,6.538,0,0,1,.252-1.8h3.391c-.051.592-.076,1.2-.076,1.8s.025,1.212.076,1.8h-3.391A6.544,6.544,0,0,1-1139.516,547.683Zm.672,2.891h3.094a10.517,10.517,0,0,0,.979,3.381A6.471,6.471,0,0,1-1138.844,550.573Z" transform="translate(1140.591 -540.099)"/></g></g></svg>