<svg xmlns="http://www.w3.org/2000/svg" width="112" height="24" viewBox="0 0 112 24"><defs><style>.a{fill:#fff;}.b{fill:#bae533;}</style></defs><g transform="translate(-139 -4058)"><g transform="translate(139 4058)"><path class="a" d="M245.482,116.579v12.976a4.686,4.686,0,0,1-4.6,4.705,4.559,4.559,0,0,1-4.7-4.551v-9.287a1.127,1.127,0,0,0-.92-1.119,1.112,1.112,0,0,0-1.288,1.089v13.032a.643.643,0,0,1-.643.643h-2.261a.643.643,0,0,1-.643-.643V120.447a4.686,4.686,0,0,1,4.6-4.706,4.559,4.559,0,0,1,4.7,4.551v9.292a1.126,1.126,0,0,0,.92,1.119,1.111,1.111,0,0,0,1.288-1.089V116.578a.643.643,0,0,1,.644-.643h2.261A.643.643,0,0,1,245.482,116.579Z" transform="translate(-199.344 -110.304)"/><path class="a" d="M122.28,120.393a1.112,1.112,0,0,0-1.288-1.089,1.127,1.127,0,0,0-.92,1.119v9.132a4.686,4.686,0,0,1-4.6,4.705,4.559,4.559,0,0,1-4.7-4.551v-9.287a1.127,1.127,0,0,0-.92-1.119,1.112,1.112,0,0,0-1.288,1.089v13.032a.643.643,0,0,1-.643.643h-2.261a.643.643,0,0,1-.643-.643V120.447a4.686,4.686,0,0,1,4.6-4.706,4.559,4.559,0,0,1,4.7,4.551v9.292a1.126,1.126,0,0,0,.92,1.119,1.111,1.111,0,0,0,1.288-1.089v-9.168a4.686,4.686,0,0,1,4.6-4.706,4.559,4.559,0,0,1,4.7,4.551v13.132a.643.643,0,0,1-.643.643h-2.261a.643.643,0,0,1-.643-.643Z" transform="translate(-105.013 -110.304)"/><path class="a" d="M203.193,116.52h2.261a.643.643,0,0,1,.643.643V134.01a.643.643,0,0,1-.643.643h-2.261a.643.643,0,0,1-.643-.643V117.163A.643.643,0,0,1,203.193,116.52Z" transform="translate(-178.378 -110.89)"/><path class="a" d="M312.573,116.52h2.261a.643.643,0,0,1,.643.643v12.011a5.657,5.657,0,0,1-5.589,5.678,5.5,5.5,0,0,1-5.654-5.488v-12.2a.643.643,0,0,1,.643-.643h2.261a.643.643,0,0,1,.643.643v12.012a2.075,2.075,0,1,0,4.15.042V117.163A.643.643,0,0,1,312.573,116.52Z" transform="translate(-254.862 -110.89)"/><circle class="a" cx="2.074" cy="2.074" r="2.074" transform="translate(23.872 0)"/></g><g transform="translate(202.842 4069.008)"><path class="b" d="M364.553,179.032a1.887,1.887,0,0,1-.683-.683,1.822,1.822,0,0,1-.255-.943,1.8,1.8,0,0,1,.255-.938,1.9,1.9,0,0,1,.683-.679,1.885,1.885,0,0,1,1.877,0,1.9,1.9,0,0,1,.683.679,1.8,1.8,0,0,1,.255.938,1.821,1.821,0,0,1-.255.943,1.887,1.887,0,0,1-.683.683,1.881,1.881,0,0,1-1.877,0Z" transform="translate(-363.615 -166.29)"/><path class="b" d="M398.122,158.664a.3.3,0,0,1,.219-.128.273.273,0,0,1,.146.055l1.422.966a.257.257,0,0,1,.137.21.282.282,0,0,1-.055.155,4.241,4.241,0,0,1-1.585,1.5,4.627,4.627,0,0,1-2.3.565,4.837,4.837,0,0,1-2.414-.61,4.453,4.453,0,0,1-1.7-1.686,5.05,5.05,0,0,1,0-4.847,4.42,4.42,0,0,1,1.7-1.681,4.865,4.865,0,0,1,2.414-.606,4.653,4.653,0,0,1,2.3.565,4.164,4.164,0,0,1,1.581,1.5.282.282,0,0,1,.055.155.276.276,0,0,1-.146.219l-1.412.957a.273.273,0,0,1-.146.055.3.3,0,0,1-.219-.128,2.348,2.348,0,0,0-1.922-.938,2.429,2.429,0,0,0-1.193.291,2.109,2.109,0,0,0-.829.82,2.407,2.407,0,0,0-.3,1.212,2.432,2.432,0,0,0,.3,1.216,2.1,2.1,0,0,0,.829.825,2.426,2.426,0,0,0,1.193.292A2.348,2.348,0,0,0,398.122,158.664Z" transform="translate(-384.493 -149.007)"/><path class="b" d="M442.662,148.964a.272.272,0,0,1,.073.2v1.54a.275.275,0,0,1-.073.2.262.262,0,0,1-.2.078h-8.172a.265.265,0,0,1-.273-.273v-1.54a.261.261,0,0,1,.078-.2.274.274,0,0,1,.2-.073h2.879v-8.583h-2.633a.264.264,0,0,1-.273-.273V138.5a.261.261,0,0,1,.077-.2.275.275,0,0,1,.2-.073h4.929a.252.252,0,0,1,.273.273v10.4h2.724A.272.272,0,0,1,442.662,148.964Z" transform="translate(-416.569 -138.222)"/><path class="b" d="M484.556,153.369a.272.272,0,0,1,.073.2v8.473a.274.274,0,0,1-.073.2.262.262,0,0,1-.2.078h-1.95a.258.258,0,0,1-.191-.073.3.3,0,0,1-.082-.2l-.073-1.312h-.319A3.157,3.157,0,0,1,480.724,162a2.729,2.729,0,0,1-1.672.5,2.983,2.983,0,0,1-1.663-.465,3.056,3.056,0,0,1-1.112-1.33,4.889,4.889,0,0,1-.4-2.05v-5.084a.262.262,0,0,1,.077-.2.275.275,0,0,1,.2-.073h2.022a.252.252,0,0,1,.273.273v4.592a2.07,2.07,0,0,0,.469,1.44,1.98,1.98,0,0,0,2.674,0,2.083,2.083,0,0,0,.465-1.44v-4.592a.263.263,0,0,1,.078-.2.275.275,0,0,1,.2-.073h2.022A.272.272,0,0,1,484.556,153.369Z" transform="translate(-448.06 -149.56)"/><path class="b" d="M527.61,142.386a3.97,3.97,0,0,1,1.5,1.69,5.571,5.571,0,0,1,.519,2.446,5.865,5.865,0,0,1-.469,2.387,3.973,3.973,0,0,1-1.335,1.681,3.372,3.372,0,0,1-2,.615,2.974,2.974,0,0,1-1.818-.542A2.743,2.743,0,0,1,523,149.292h-.237L522.6,150.7q-.027.273-.264.273h-1.768a.265.265,0,0,1-.273-.273V138.5a.262.262,0,0,1,.077-.2.274.274,0,0,1,.2-.073h2.023a.252.252,0,0,1,.273.273v4.228a2.593,2.593,0,0,1,.961-.688,3.691,3.691,0,0,1,1.471-.26A4.277,4.277,0,0,1,527.61,142.386Zm-1.53,6.159a1.927,1.927,0,0,0,.77-.811,2.679,2.679,0,0,0,.274-1.248,2.652,2.652,0,0,0-.274-1.244,1.934,1.934,0,0,0-.77-.806,2.276,2.276,0,0,0-1.144-.283,2.248,2.248,0,0,0-1.134.278,1.888,1.888,0,0,0-.756.806,3.031,3.031,0,0,0,0,2.5,1.914,1.914,0,0,0,.756.811,2.22,2.22,0,0,0,1.134.282A2.273,2.273,0,0,0,526.08,148.545Z" transform="translate(-481.47 -138.222)"/></g></g></svg>