<svg xmlns="http://www.w3.org/2000/svg" width="100" height="22" viewBox="0 0 100 22"><defs><style>.a{isolation:isolate;}.b{fill:#bae533;}.c{fill:#0a2d32;}</style></defs><g class="a"><g transform="translate(57.032 10.408)"><path class="b" d="M364.452,178.655a1.684,1.684,0,0,1-.609-.61,1.625,1.625,0,0,1-.228-.841,1.6,1.6,0,0,1,.228-.837,1.7,1.7,0,0,1,.609-.606,1.681,1.681,0,0,1,1.675,0,1.7,1.7,0,0,1,.61.606,1.6,1.6,0,0,1,.228.837,1.625,1.625,0,0,1-.228.841,1.685,1.685,0,0,1-.61.61,1.678,1.678,0,0,1-1.675,0Z" transform="translate(-363.615 -167.287)"/><path class="b" d="M397.394,158.006a.269.269,0,0,1,.2-.114.244.244,0,0,1,.13.049l1.268.861a.229.229,0,0,1,.122.187.252.252,0,0,1-.049.138,3.784,3.784,0,0,1-1.414,1.341,4.128,4.128,0,0,1-2.049.5,4.315,4.315,0,0,1-2.154-.544,3.975,3.975,0,0,1-1.52-1.5,4.5,4.5,0,0,1,0-4.324,3.944,3.944,0,0,1,1.52-1.5,4.341,4.341,0,0,1,2.154-.541,4.152,4.152,0,0,1,2.052.5,3.715,3.715,0,0,1,1.41,1.341.251.251,0,0,1,.049.138.246.246,0,0,1-.13.2l-1.26.853a.243.243,0,0,1-.13.049.269.269,0,0,1-.2-.114,2.1,2.1,0,0,0-1.715-.837,2.167,2.167,0,0,0-1.065.26,1.883,1.883,0,0,0-.74.731,2.149,2.149,0,0,0-.268,1.081,2.171,2.171,0,0,0,.268,1.085,1.875,1.875,0,0,0,.74.736,2.165,2.165,0,0,0,1.065.26A2.1,2.1,0,0,0,397.394,158.006Z" transform="translate(-385.234 -149.39)"/><path class="b" d="M441.73,147.806a.243.243,0,0,1,.065.179v1.374a.246.246,0,0,1-.065.175.235.235,0,0,1-.179.069H434.26a.236.236,0,0,1-.244-.244v-1.374a.233.233,0,0,1,.069-.179.244.244,0,0,1,.175-.065h2.569v-7.657h-2.349a.236.236,0,0,1-.244-.244v-1.374a.233.233,0,0,1,.069-.179.245.245,0,0,1,.175-.065h4.4a.225.225,0,0,1,.244.244v9.275h2.431A.243.243,0,0,1,441.73,147.806Z" transform="translate(-418.45 -138.222)"/><path class="b" d="M483.62,153.36a.243.243,0,0,1,.065.179v7.56a.245.245,0,0,1-.065.175.234.234,0,0,1-.179.069H481.7a.23.23,0,0,1-.171-.065.27.27,0,0,1-.073-.179l-.065-1.171h-.285a2.817,2.817,0,0,1-.906,1.134,2.435,2.435,0,0,1-1.492.443,2.661,2.661,0,0,1-1.484-.415,2.725,2.725,0,0,1-.992-1.187,4.361,4.361,0,0,1-.354-1.829v-4.536a.234.234,0,0,1,.069-.179.246.246,0,0,1,.175-.065h1.8a.225.225,0,0,1,.244.244v4.1a1.847,1.847,0,0,0,.419,1.284,1.767,1.767,0,0,0,2.386,0,1.858,1.858,0,0,0,.415-1.284v-4.1a.234.234,0,0,1,.069-.179.246.246,0,0,1,.175-.065h1.8A.243.243,0,0,1,483.62,153.36Z" transform="translate(-451.059 -149.962)"/><path class="b" d="M526.822,141.937a3.546,3.546,0,0,1,1.337,1.508,4.971,4.971,0,0,1,.463,2.183,5.234,5.234,0,0,1-.419,2.13,3.542,3.542,0,0,1-1.191,1.5,3.008,3.008,0,0,1-1.788.549,2.654,2.654,0,0,1-1.622-.484,2.448,2.448,0,0,1-.9-1.223h-.211l-.138,1.26q-.024.244-.236.244h-1.577a.236.236,0,0,1-.244-.244V138.466a.233.233,0,0,1,.069-.179.245.245,0,0,1,.175-.065h1.8a.225.225,0,0,1,.244.244v3.772a2.314,2.314,0,0,1,.858-.614,3.293,3.293,0,0,1,1.313-.232A3.818,3.818,0,0,1,526.822,141.937Zm-1.365,5.5a1.721,1.721,0,0,0,.687-.723,2.391,2.391,0,0,0,.244-1.114,2.366,2.366,0,0,0-.244-1.11,1.727,1.727,0,0,0-.687-.72,2.032,2.032,0,0,0-1.021-.252,2.006,2.006,0,0,0-1.012.248,1.683,1.683,0,0,0-.675.719,2.7,2.7,0,0,0,0,2.227,1.709,1.709,0,0,0,.675.723,1.981,1.981,0,0,0,1.012.252A2.029,2.029,0,0,0,525.457,147.432Z" transform="translate(-485.655 -138.222)"/></g><path class="c" d="M243.858,116.489v11.577a4.181,4.181,0,0,1-4.106,4.2,4.068,4.068,0,0,1-4.194-4.06v-8.286a1,1,0,0,0-.821-1,.992.992,0,0,0-1.15.972v11.627a.574.574,0,0,1-.574.574H231a.574.574,0,0,1-.574-.574V119.94a4.181,4.181,0,0,1,4.106-4.2,4.068,4.068,0,0,1,4.194,4.06v8.291a1,1,0,0,0,.821,1,.992.992,0,0,0,1.15-.971V116.487a.574.574,0,0,1,.574-.574h2.017A.574.574,0,0,1,243.858,116.489Z" transform="translate(-202.694 -110.304)"/><path class="c" d="M120.419,119.891a.992.992,0,0,0-1.15-.972,1,1,0,0,0-.821,1v8.148a4.181,4.181,0,0,1-4.106,4.2,4.068,4.068,0,0,1-4.194-4.06v-8.286a1,1,0,0,0-.821-1,.992.992,0,0,0-1.15.972v11.627a.574.574,0,0,1-.574.574h-2.017a.574.574,0,0,1-.574-.574V119.94a4.181,4.181,0,0,1,4.106-4.2,4.068,4.068,0,0,1,4.195,4.06v8.291a1,1,0,0,0,.821,1,.992.992,0,0,0,1.15-.971V119.94a4.181,4.181,0,0,1,4.106-4.2,4.068,4.068,0,0,1,4.194,4.06v11.717a.574.574,0,0,1-.574.574h-2.017a.574.574,0,0,1-.574-.574Z" transform="translate(-105.013 -110.304)"/><path class="c" d="M203.124,116.52h2.017a.574.574,0,0,1,.574.574v15.031a.574.574,0,0,1-.574.574h-2.017a.574.574,0,0,1-.574-.574V117.094A.574.574,0,0,1,203.124,116.52Z" transform="translate(-180.984 -110.91)"/><path class="c" d="M311.674,116.52h2.017a.574.574,0,0,1,.574.574V127.81a5.048,5.048,0,0,1-4.987,5.066,4.908,4.908,0,0,1-5.045-4.9V117.094a.574.574,0,0,1,.574-.574h2.017a.574.574,0,0,1,.574.574v10.717a1.851,1.851,0,1,0,3.7.038V117.094A.574.574,0,0,1,311.674,116.52Z" transform="translate(-260.184 -110.91)"/><ellipse class="c" cx="1.85" cy="1.85" rx="1.85" ry="1.85" transform="translate(21.298)"/></g></svg>