<svg xmlns="http://www.w3.org/2000/svg" width="56" height="56" viewBox="0 0 56 56"><defs><style>.a{isolation:isolate;}.b{fill:#787dfa;}.c{fill:none;}</style></defs><g class="a" transform="translate(-4103.511 -954.858)"><path class="b" d="M4188.732,1004.125h-5V993.807a.887.887,0,0,0-.887-.887h-25.681a6.9,6.9,0,0,0-6.9,6.9v31.124h.1a5.587,5.587,0,0,0,5.49,4.422h24.455a.887.887,0,0,0,.887-.887v-5.637h1.647a.888.888,0,0,0,.887-.887v-10.242h5a.887.887,0,0,0,.887-.887v-11.818A.887.887,0,0,0,4188.732,1004.125Zm-18.559,8.393h9.124v1.651h-9.124Zm0-3.193v-1.651h9.124v1.651Zm6.59,21.611H4155.74a1.045,1.045,0,0,1-1.044-1.044v0a1.045,1.045,0,0,1,1.044-1.044h21.024Zm2.534-6.524H4155.74a5.478,5.478,0,0,0-1.044.1V999.825a2.469,2.469,0,0,1,2.469-2.469H4179.3v6.77h-12.361a.887.887,0,0,0-.553.193l-7.415,5.909a.887.887,0,0,0,0,1.388l7.415,5.909a.887.887,0,0,0,.553.193H4179.3Zm-12.672-11.175-2.874-2.315,2.874-2.315Zm19.446.933h-2.343v-6.5h2.343Z" transform="translate(-38.43 -31.287)"/><rect class="c" width="56" height="56" transform="translate(4103.511 954.858)"/></g></svg>