<svg xmlns="http://www.w3.org/2000/svg" width="263" height="206" viewBox="0 0 263 206"><defs><style>.a{isolation:isolate;}.b{fill:#b9e632;}.c{fill:#00dc87;}.d{fill:#787dfa;}.e{fill:#0a2d32;}.f{fill:#00b9c8;}</style></defs><g class="a" transform="translate(-376.083 -476.61)"><g transform="translate(376.082 537.494)"><g transform="translate(6.953 45.007)"><g transform="translate(0 37.501)"><path class="b" d="M1.6,0H13.622A12.295,12.295,0,0,1,25.916,12.295V22.414a0,0,0,0,1,0,0H20.811A20.811,20.811,0,0,1,0,1.6v0A1.6,1.6,0,0,1,1.6,0Z" transform="translate(0 0)"/><path class="b" d="M20.811,0h5.106a0,0,0,0,1,0,0V10.119A12.295,12.295,0,0,1,13.622,22.414H1.6a1.6,1.6,0,0,1-1.6-1.6v0A20.811,20.811,0,0,1,20.811,0Z" transform="translate(56.125 22.414) rotate(180)"/><path class="c" d="M0,0H17.085a8.831,8.831,0,0,1,8.831,8.831v6.117a0,0,0,0,1,0,0H14.948A14.948,14.948,0,0,1,0,0V0A0,0,0,0,1,0,0Z" transform="translate(0 7.465)"/><path class="c" d="M14.948,0H25.916a0,0,0,0,1,0,0V6.117a8.831,8.831,0,0,1-8.831,8.831H0a0,0,0,0,1,0,0v0A14.948,14.948,0,0,1,14.948,0Z" transform="translate(56.125 22.414) rotate(180)"/></g><rect class="d" width="6.443" height="100.109" transform="translate(24.9)"/></g><g transform="translate(0 0)"><rect class="e" width="34.394" height="34.394" transform="translate(17.88 17.882)"/><rect class="b" width="13.902" height="13.902" rx="6.951" transform="translate(28.126 28.127)"/><path class="f" d="M0,0H.683a17.2,17.2,0,0,1,17.2,17.2v0a17.2,17.2,0,0,1-17.2,17.2H0a0,0,0,0,1,0,0V0A0,0,0,0,1,0,0Z" transform="translate(17.88 52.276) rotate(180)"/><path class="f" d="M0,0H.682a17.2,17.2,0,0,1,17.2,17.2v0a17.2,17.2,0,0,1-17.2,17.2H0a0,0,0,0,1,0,0V0A0,0,0,0,1,0,0Z" transform="translate(52.275 17.882)"/><path class="f" d="M0,0H.683a17.2,17.2,0,0,1,17.2,17.2v0a17.2,17.2,0,0,1-17.2,17.2H0a0,0,0,0,1,0,0V0A0,0,0,0,1,0,0Z" transform="translate(52.272 52.275) rotate(89.997)"/><path class="f" d="M0,0H.682a17.2,17.2,0,0,1,17.2,17.2v0a17.2,17.2,0,0,1-17.2,17.2H0a0,0,0,0,1,0,0V0A0,0,0,0,1,0,0Z" transform="translate(17.878 17.881) rotate(-90.003)"/></g></g><g transform="translate(572.277 535.61)"><g transform="translate(1.717 61.283)"><g transform="translate(0 23.109)"><path class="b" d="M1.6,0H13.622A12.295,12.295,0,0,1,25.916,12.295V22.414a0,0,0,0,1,0,0H20.811A20.811,20.811,0,0,1,0,1.6v0A1.6,1.6,0,0,1,1.6,0Z" transform="translate(0 0)"/><path class="b" d="M20.811,0h5.106a0,0,0,0,1,0,0V10.119A12.295,12.295,0,0,1,13.622,22.414H1.6a1.6,1.6,0,0,1-1.6-1.6v0A20.811,20.811,0,0,1,20.811,0Z" transform="translate(56.125 22.414) rotate(180)"/><path class="c" d="M0,0H17.085a8.831,8.831,0,0,1,8.831,8.831v6.117a0,0,0,0,1,0,0H14.948A14.948,14.948,0,0,1,0,0V0A0,0,0,0,1,0,0Z" transform="translate(0 7.465)"/><path class="c" d="M14.948,0H25.916a0,0,0,0,1,0,0V6.117a8.831,8.831,0,0,1-8.831,8.831H0a0,0,0,0,1,0,0v0A14.948,14.948,0,0,1,14.948,0Z" transform="translate(56.125 22.414) rotate(180)"/></g><rect class="d" width="6.443" height="85.717" transform="translate(24.9)"/></g><g transform="translate(0 0)"><rect class="f" width="34.394" height="34.394" rx="17.197" transform="translate(12.645 19.766)"/><path class="b" d="M1028.864,750.1h0a6.951,6.951,0,0,1-9.83,0h0a6.952,6.952,0,0,1,0-9.831h0a6.951,6.951,0,0,1,9.83,0h0A6.951,6.951,0,0,1,1028.864,750.1Z" transform="translate(-994.107 -708.222)"/><path class="e" d="M979.488,783.343l.483-.483-24.32-24.321-.483.483a17.2,17.2,0,0,0,0,24.32h0A17.2,17.2,0,0,0,979.488,783.343Z" transform="translate(-950.129 -721.578)"/><path class="e" d="M0,0H.682a17.2,17.2,0,0,1,17.2,17.2v0a17.2,17.2,0,0,1-17.2,17.2H0a0,0,0,0,1,0,0V0A0,0,0,0,1,0,0Z" transform="matrix(0.707, -0.707, 0.707, 0.707, 29.843, 12.643)"/><path class="e" d="M1062.1,759.026l-.482-.483-24.32,24.32.483.483a17.2,17.2,0,0,0,24.32,0h0A17.2,17.2,0,0,0,1062.1,759.026Z" transform="translate(-1007.461 -721.58)"/><path class="e" d="M955.163,700.726l.482.481,24.32-24.32-.483-.483a17.2,17.2,0,0,0-24.319,0h0A17.2,17.2,0,0,0,955.163,700.726Z" transform="translate(-950.125 -664.245)"/></g></g><g transform="translate(447.651 476.61)"><g transform="translate(21.387 72.589)"><g transform="translate(0 45.912)"><path class="b" d="M2.3,0H19.52A17.619,17.619,0,0,1,37.139,17.619v14.5a0,0,0,0,1,0,0H29.823A29.823,29.823,0,0,1,0,2.3v0A2.3,2.3,0,0,1,2.3,0Z"/><path class="b" d="M29.823,0h7.316a0,0,0,0,1,0,0V14.5A17.619,17.619,0,0,1,19.52,32.12H2.3a2.3,2.3,0,0,1-2.3-2.3v0A29.823,29.823,0,0,1,29.823,0Z" transform="translate(80.43 32.12) rotate(180)"/><path class="c" d="M0,0H24.484A12.655,12.655,0,0,1,37.139,12.655v8.766a0,0,0,0,1,0,0H21.422A21.422,21.422,0,0,1,0,0V0A0,0,0,0,1,0,0Z" transform="translate(0 10.698)"/><path class="c" d="M21.422,0H37.139a0,0,0,0,1,0,0V8.766A12.655,12.655,0,0,1,24.484,21.422H0a0,0,0,0,1,0,0v0A21.422,21.422,0,0,1,21.422,0Z" transform="translate(80.43 32.12) rotate(-180)"/></g><rect class="d" width="6.443" height="133.411" transform="translate(37.052)"/></g><g transform="translate(0 0)"><circle class="d" cx="43.559" cy="43.559" r="43.559" transform="translate(0 61.602) rotate(-45)"/><circle class="f" cx="31.316" cy="31.316" r="31.316" transform="translate(17.315 61.602) rotate(-45)"/><circle class="c" cx="18.782" cy="18.782" r="18.782" transform="translate(40.097 77.191) rotate(-80.939)"/><circle class="b" cx="6.31" cy="6.31" r="6.31" transform="translate(55.292 55.292)"/></g></g></g></svg>