<svg xmlns="http://www.w3.org/2000/svg" width="56" height="56" viewBox="0 0 56 56"><defs><style>.a{isolation:isolate;}.b{fill:none;}.c{fill:#787dfa;}</style></defs><g class="a" transform="translate(-446.794 -946.868)"><rect class="b" width="56" height="56" transform="translate(446.794 946.868)"/><g transform="translate(457.229 954.196)"><path class="c" d="M540.024,988.053h-9.189a.89.89,0,0,0-.89.89v2.669a.89.89,0,0,0,.89.89h2.514L523.3,1001.91l-4.765-4.935-12.469,12.033a.933.933,0,0,0-.023,1.319l1.917,1.987a.933.933,0,0,0,1.319.023l9.141-8.821,4.717,4.885,13.326-12.48v3.634a.89.89,0,0,0,.89.89h2.669a.89.89,0,0,0,.89-.89V988.943A.89.89,0,0,0,540.024,988.053Z" transform="translate(-505.783 -988.053)"/><g transform="translate(0.629 29.253)"><path class="c" d="M518.887,1165.235h-8.814a.753.753,0,0,1-.753-.752V1153.9a.752.752,0,0,1,.753-.752h8.814a.752.752,0,0,1,.753.752v10.585A.753.753,0,0,1,518.887,1165.235Zm-4.94-4.626h1.066v-2.837h-1.066Z" transform="translate(-509.321 -1153.145)"/></g><g transform="translate(12.453 22.987)"><path class="c" d="M585.337,1136.287h-8.814a.753.753,0,0,1-.753-.753v-16.851a.753.753,0,0,1,.753-.752h8.814a.752.752,0,0,1,.753.752v16.851A.753.753,0,0,1,585.337,1136.287Zm-4.94-4.626h1.066v-9.1H580.4Z" transform="translate(-575.771 -1117.931)"/></g><g transform="translate(24.277 15.953)"><path class="c" d="M651.788,1103.787h-8.814a.753.753,0,0,1-.753-.753v-23.886a.753.753,0,0,1,.753-.752h8.814a.752.752,0,0,1,.752.752v23.886A.753.753,0,0,1,651.788,1103.787Zm-4.94-4.626h1.066v-16.138h-1.066Z" transform="translate(-642.221 -1078.396)"/></g></g></g></svg>