<svg xmlns="http://www.w3.org/2000/svg" width="56" height="56" viewBox="0 0 56 56">
  <g id="Group_3424" data-name="Group 3424" transform="translate(-3697.913 -954.858)" style="isolation: isolate">
    <rect id="Rectangle_1251" data-name="Rectangle 1251" width="56" height="56" transform="translate(3697.913 954.858)" fill="none"/>
    <path id="Path_20972" data-name="Path 20972" d="M51.112,1014.454H43.586a9.939,9.939,0,0,0-5.544,1.68v-2.378l10.193-10.194a8.97,8.97,0,0,0,0-12.685h0a8.981,8.981,0,0,0-12.414-.26,8.97,8.97,0,0,0-12.414,12.946L33.6,1013.756v2.378a9.938,9.938,0,0,0-5.544-1.68H20.531a.888.888,0,0,0-.888.888v4.938a9.985,9.985,0,0,0,9.985,9.985H42.015A9.985,9.985,0,0,0,52,1020.28v-4.937A.888.888,0,0,0,51.112,1014.454ZM25.222,997.22a4.529,4.529,0,0,1,7.731-3.2l2.869,2.868,2.869-2.868a4.529,4.529,0,1,1,6.4,6.4l-9.273,9.274-9.273-9.274A4.5,4.5,0,0,1,25.222,997.22Zm8.379,28.6H29.628a5.55,5.55,0,0,1-5.544-5.543V1018.9h3.973a5.55,5.55,0,0,1,5.544,5.544Zm13.958-5.543a5.55,5.55,0,0,1-5.544,5.543H38.042v-1.386a5.55,5.55,0,0,1,5.544-5.542h3.973Z" transform="translate(3690.092 -26.405)" fill="#787dfa"/>
  </g>
</svg>
